<svg width="512" height="512" viewBox="0 0 512 512" fill="none" xmlns="http://www.w3.org/2000/svg">
<path d="M110.424 212.75C128.332 212.75 142.848 195.96 142.848 175.25C142.848 154.539 128.332 137.75 110.424 137.75C92.5168 137.75 78 154.539 78 175.25C78 195.96 92.5168 212.75 110.424 212.75Z" stroke="url(#paint0_linear_150_198)" stroke-width="12" stroke-miterlimit="10" stroke-linecap="round" stroke-linejoin="round"/>
<path d="M402.242 212.75C420.15 212.75 434.666 195.96 434.666 175.25C434.666 154.539 420.15 137.75 402.242 137.75C384.335 137.75 369.818 154.539 369.818 175.25C369.818 195.96 384.335 212.75 402.242 212.75Z" stroke="url(#paint1_linear_150_198)" stroke-width="12" stroke-miterlimit="10" stroke-linecap="round" stroke-linejoin="round"/>
<path d="M369.818 175.25H304.969" stroke="url(#paint2_linear_150_198)" stroke-width="12" stroke-miterlimit="10" stroke-linecap="round" stroke-linejoin="round"/>
<path d="M207.697 175.25H142.849" stroke="url(#paint3_linear_150_198)" stroke-width="12" stroke-miterlimit="10" stroke-linecap="round" stroke-linejoin="round"/>
<path d="M183.379 353.375V390.875C183.379 402.312 177.38 412.25 168.95 416.375C165.87 418.062 162.627 419 159.061 419H126.636C113.18 419 102.318 406.437 102.318 390.875V353.375C102.318 337.812 113.18 325.25 126.636 325.25H159.061C172.517 325.25 183.379 337.812 183.379 353.375Z" stroke="url(#paint4_linear_150_198)" stroke-width="12" stroke-miterlimit="10" stroke-linecap="round" stroke-linejoin="round"/>
<path d="M410.348 353.375V390.875C410.348 406.437 399.486 419 386.03 419H353.606C350.039 419 346.797 418.062 343.716 416.375C335.286 412.25 329.288 402.312 329.288 390.875V353.375C329.288 337.812 340.15 325.25 353.606 325.25H386.03C399.486 325.25 410.348 337.812 410.348 353.375Z" stroke="url(#paint5_linear_150_198)" stroke-width="12" stroke-miterlimit="10" stroke-linecap="round" stroke-linejoin="round"/>
<path d="M304.969 147.125V203.375C304.969 218.75 293.945 231.5 280.651 231.5H232.015C218.721 231.5 207.697 218.75 207.697 203.375V147.125C207.697 131.75 218.721 119 232.015 119H280.651C293.945 119 304.969 131.75 304.969 147.125Z" stroke="url(#paint6_linear_150_198)" stroke-width="12" stroke-miterlimit="10" stroke-linecap="round" stroke-linejoin="round"/>
<path d="M304.969 188.937C343.392 211.437 369.818 259.813 369.818 315.875C369.818 319.063 369.656 322.063 369.332 325.25" stroke="url(#paint7_linear_150_198)" stroke-width="12" stroke-miterlimit="10" stroke-linecap="round" stroke-linejoin="round"/>
<path d="M143.335 325.25C143.011 322.063 142.849 319.063 142.849 315.875C142.849 259.813 169.274 211.437 207.697 188.937" stroke="url(#paint8_linear_150_198)" stroke-width="12" stroke-miterlimit="10" stroke-linecap="round" stroke-linejoin="round"/>
<defs>
<linearGradient id="paint0_linear_150_198" x1="110.424" y1="137.75" x2="110.424" y2="212.75" gradientUnits="userSpaceOnUse">
<stop stop-color="#657BAE"/>
<stop offset="0.0001" stop-color="#1053EB"/>
<stop offset="1" stop-color="#1A8299"/>
</linearGradient>
<linearGradient id="paint1_linear_150_198" x1="402.242" y1="137.75" x2="402.242" y2="212.75" gradientUnits="userSpaceOnUse">
<stop stop-color="#657BAE"/>
<stop offset="0.0001" stop-color="#1053EB"/>
<stop offset="1" stop-color="#1A8299"/>
</linearGradient>
<linearGradient id="paint2_linear_150_198" x1="337.394" y1="175.25" x2="337.394" y2="176.25" gradientUnits="userSpaceOnUse">
<stop stop-color="#657BAE"/>
<stop offset="0.0001" stop-color="#1053EB"/>
<stop offset="1" stop-color="#1A8299"/>
</linearGradient>
<linearGradient id="paint3_linear_150_198" x1="175.273" y1="175.25" x2="175.273" y2="176.25" gradientUnits="userSpaceOnUse">
<stop stop-color="#657BAE"/>
<stop offset="0.0001" stop-color="#1053EB"/>
<stop offset="1" stop-color="#1A8299"/>
</linearGradient>
<linearGradient id="paint4_linear_150_198" x1="142.848" y1="325.25" x2="142.848" y2="419" gradientUnits="userSpaceOnUse">
<stop stop-color="#657BAE"/>
<stop offset="0.0001" stop-color="#1053EB"/>
<stop offset="1" stop-color="#1A8299"/>
</linearGradient>
<linearGradient id="paint5_linear_150_198" x1="369.818" y1="325.25" x2="369.818" y2="419" gradientUnits="userSpaceOnUse">
<stop stop-color="#657BAE"/>
<stop offset="0.0001" stop-color="#1053EB"/>
<stop offset="1" stop-color="#1A8299"/>
</linearGradient>
<linearGradient id="paint6_linear_150_198" x1="256.333" y1="119" x2="256.333" y2="231.5" gradientUnits="userSpaceOnUse">
<stop stop-color="#657BAE"/>
<stop offset="0.0001" stop-color="#1053EB"/>
<stop offset="1" stop-color="#1A8299"/>
</linearGradient>
<linearGradient id="paint7_linear_150_198" x1="337.394" y1="188.937" x2="337.394" y2="325.25" gradientUnits="userSpaceOnUse">
<stop stop-color="#657BAE"/>
<stop offset="0.0001" stop-color="#1053EB"/>
<stop offset="1" stop-color="#1A8299"/>
</linearGradient>
<linearGradient id="paint8_linear_150_198" x1="175.273" y1="188.937" x2="175.273" y2="325.25" gradientUnits="userSpaceOnUse">
<stop stop-color="#657BAE"/>
<stop offset="0.0001" stop-color="#1053EB"/>
<stop offset="1" stop-color="#1A8299"/>
</linearGradient>
</defs>
</svg>
