<svg xmlns="http://www.w3.org/2000/svg" width="256" height="256" viewBox="0 0 100 100"><rect width="100" height="100" rx="20" fill="#2789e6"></rect><path d="M45.96 38.36L45.96 38.36Q45.96 41.96 44.00 44.56Q42.04 47.16 38.36 48.60L38.36 48.60Q43.00 50.12 45.32 53.08Q47.64 56.04 47.64 60.20L47.64 60.20Q47.64 67.96 41.92 71.72Q36.20 75.48 25.40 75.48L25.40 75.48Q23.96 75.48 22.16 75.40Q20.36 75.32 18.48 75.12Q16.60 74.92 14.72 74.56Q12.84 74.20 11.32 73.64L11.32 73.64Q7.16 72.12 7.16 68.20L7.16 68.20L7.16 30.12Q7.16 28.52 8.00 27.64Q8.84 26.76 10.44 26.28L10.44 26.28Q13.08 25.40 17.00 24.96Q20.92 24.52 25.08 24.52L25.08 24.52Q35.08 24.52 40.52 27.92Q45.96 31.32 45.96 38.36ZM34.84 59.64L34.84 59.64Q34.84 53.96 27.56 53.96L27.56 53.96L19.32 53.96L19.32 65.16Q20.60 65.48 22.52 65.64Q24.44 65.80 26.20 65.80L26.20 65.80Q30.04 65.80 32.44 64.32Q34.84 62.84 34.84 59.64ZM19.32 34.44L19.32 45.08L26.76 45.08Q29.88 45.08 31.64 43.64Q33.40 42.20 33.40 39.40L33.40 39.40Q33.40 36.84 31.36 35.44Q29.32 34.04 25.24 34.04L25.24 34.04Q23.72 34.04 22.04 34.16Q20.36 34.28 19.32 34.44L19.32 34.44ZM56.92 60.52L77 35.88L55.80 35.88Q55.24 35 54.84 33.76Q54.44 32.52 54.44 30.92L54.44 30.92Q54.44 28.12 55.64 26.84Q56.84 25.56 59 25.56L59 25.56L89.16 25.56Q92.28 28.20 92.28 32.36L92.28 32.36Q92.28 34.20 91.48 35.96Q90.68 37.72 89.32 39.32L89.32 39.32L69.32 63.96L91.48 63.96Q91.96 64.84 92.40 66.12Q92.84 67.40 92.84 69L92.84 69Q92.84 71.80 91.64 73.04Q90.44 74.28 88.36 74.28L88.36 74.28L56.52 74.28Q55.32 73.24 54.52 71.56Q53.72 69.88 53.72 67.64L53.72 67.64Q53.72 65.80 54.64 63.96Q55.56 62.12 56.92 60.52L56.92 60.52Z" fill="#fdf9f9"></path></svg>