<svg width="225" height="102" viewBox="0 0 225 102" fill="none" xmlns="http://www.w3.org/2000/svg">
<path d="M10.25 38.25C14.0239 38.25 17.0833 34.4444 17.0833 29.75C17.0833 25.0556 14.0239 21.25 10.25 21.25C6.47601 21.25 3.41663 25.0556 3.41663 29.75C3.41663 34.4444 6.47601 38.25 10.25 38.25Z" stroke="#1053EB" stroke-width="1.5" stroke-miterlimit="10" stroke-linecap="round" stroke-linejoin="round"/>
<path d="M71.75 38.25C75.5239 38.25 78.5833 34.4444 78.5833 29.75C78.5833 25.0556 75.5239 21.25 71.75 21.25C67.976 21.25 64.9166 25.0556 64.9166 29.75C64.9166 34.4444 67.976 38.25 71.75 38.25Z" stroke="#1053EB" stroke-width="1.5" stroke-miterlimit="10" stroke-linecap="round" stroke-linejoin="round"/>
<path d="M64.9167 29.75H51.25" stroke="#1053EB" stroke-width="1.5" stroke-miterlimit="10" stroke-linecap="round" stroke-linejoin="round"/>
<path d="M30.7499 29.75H17.0833" stroke="#1053EB" stroke-width="1.5" stroke-miterlimit="10" stroke-linecap="round" stroke-linejoin="round"/>
<path d="M25.625 70.125V78.625C25.625 81.2175 24.3608 83.4699 22.5841 84.4049C21.935 84.7874 21.2516 85 20.5 85H13.6666C10.8308 85 8.54163 82.1525 8.54163 78.625V70.125C8.54163 66.5975 10.8308 63.75 13.6666 63.75H20.5C23.3358 63.75 25.625 66.5975 25.625 70.125Z" stroke="#1053EB" stroke-width="1.5" stroke-miterlimit="10" stroke-linecap="round" stroke-linejoin="round"/>
<path d="M73.4583 70.125V78.625C73.4583 82.1525 71.1692 85 68.3333 85H61.5C60.7483 85 60.065 84.7874 59.4158 84.4049C57.6392 83.4699 56.375 81.2175 56.375 78.625V70.125C56.375 66.5975 58.6642 63.75 61.5 63.75H68.3333C71.1692 63.75 73.4583 66.5975 73.4583 70.125Z" stroke="#1053EB" stroke-width="1.5" stroke-miterlimit="10" stroke-linecap="round" stroke-linejoin="round"/>
<path d="M51.25 23.375V36.125C51.25 39.61 48.9267 42.5 46.125 42.5H35.875C33.0733 42.5 30.75 39.61 30.75 36.125V23.375C30.75 19.89 33.0733 17 35.875 17H46.125C48.9267 17 51.25 19.89 51.25 23.375Z" stroke="#1053EB" stroke-width="1.5" stroke-miterlimit="10" stroke-linecap="round" stroke-linejoin="round"/>
<path d="M51.25 32.8524C59.3475 37.9524 64.9167 48.9175 64.9167 61.625C64.9167 62.3475 64.8825 63.0275 64.8142 63.75" stroke="#1053EB" stroke-width="1.5" stroke-miterlimit="10" stroke-linecap="round" stroke-linejoin="round"/>
<path d="M17.1858 63.75C17.1174 63.0275 17.0833 62.3475 17.0833 61.625C17.0833 48.9175 22.6524 37.9524 30.7499 32.8524" stroke="#1053EB" stroke-width="1.5" stroke-miterlimit="10" stroke-linecap="round" stroke-linejoin="round"/>
<path d="M107.856 63.48C105.552 63.48 103.589 62.9787 101.968 61.976C100.347 60.9627 99.104 59.5547 98.24 57.752C97.3867 55.9493 96.96 53.8587 96.96 51.48C96.96 49.1013 97.3867 47.0107 98.24 45.208C99.104 43.4053 100.347 42.0027 101.968 41C103.589 39.9867 105.552 39.48 107.856 39.48C110.149 39.48 112.107 39.9867 113.728 41C115.36 42.0027 116.603 43.4053 117.456 45.208C118.309 47.0107 118.736 49.1013 118.736 51.48C118.736 53.8587 118.309 55.9493 117.456 57.752C116.603 59.5547 115.36 60.9627 113.728 61.976C112.107 62.9787 110.149 63.48 107.856 63.48ZM107.856 60.296C109.488 60.3173 110.843 59.96 111.92 59.224C113.008 58.4773 113.824 57.4427 114.368 56.12C114.912 54.7867 115.184 53.24 115.184 51.48C115.184 49.72 114.912 48.184 114.368 46.872C113.824 45.5493 113.008 44.52 111.92 43.784C110.843 43.048 109.488 42.6747 107.856 42.664C106.224 42.6427 104.864 43 103.776 43.736C102.699 44.472 101.888 45.5067 101.344 46.84C100.8 48.1733 100.523 49.72 100.512 51.48C100.501 53.24 100.768 54.7813 101.312 56.104C101.856 57.416 102.672 58.44 103.76 59.176C104.859 59.912 106.224 60.2853 107.856 60.296ZM121.928 63V39.96H131.24C131.464 39.96 131.741 39.9707 132.072 39.992C132.402 40.0027 132.717 40.0347 133.016 40.088C134.296 40.2907 135.362 40.728 136.215 41.4C137.08 42.072 137.725 42.92 138.152 43.944C138.578 44.968 138.792 46.0987 138.792 47.336C138.792 49.1707 138.322 50.7547 137.384 52.088C136.445 53.4107 135.037 54.2373 133.16 54.568L131.8 54.728H125.272V63H121.928ZM135.4 63L130.856 53.624L134.232 52.76L139.224 63H135.4ZM125.272 51.56H131.112C131.325 51.56 131.56 51.5493 131.816 51.528C132.082 51.5067 132.333 51.4693 132.568 51.416C133.25 51.256 133.8 50.9627 134.216 50.536C134.632 50.0987 134.93 49.5973 135.112 49.032C135.293 48.4667 135.384 47.9013 135.384 47.336C135.384 46.7707 135.293 46.2107 135.112 45.656C134.93 45.0907 134.632 44.5947 134.216 44.168C133.8 43.7307 133.25 43.432 132.568 43.272C132.333 43.208 132.082 43.1653 131.816 43.144C131.56 43.1227 131.325 43.112 131.112 43.112H125.272V51.56ZM159.034 63C157.946 63.2133 156.88 63.304 155.834 63.272C154.789 63.24 153.856 63.0373 153.034 62.664C152.213 62.2907 151.594 61.704 151.178 60.904C150.805 60.1893 150.602 59.464 150.57 58.728C150.549 57.9813 150.538 57.1387 150.538 56.2V40.92H153.898V56.04C153.898 56.7333 153.904 57.336 153.914 57.848C153.936 58.36 154.048 58.792 154.25 59.144C154.634 59.8053 155.242 60.184 156.074 60.28C156.917 60.3653 157.904 60.328 159.034 60.168V63ZM147.226 48.408V45.72H159.034V48.408H147.226ZM169.56 63.48C167.843 63.48 166.334 63.1067 165.032 62.36C163.742 61.6027 162.734 60.552 162.008 59.208C161.294 57.8533 160.936 56.2853 160.936 54.504C160.936 52.616 161.288 50.9787 161.992 49.592C162.707 48.2053 163.699 47.1333 164.968 46.376C166.238 45.6187 167.715 45.24 169.4 45.24C171.16 45.24 172.659 45.6507 173.896 46.472C175.134 47.2827 176.056 48.44 176.664 49.944C177.283 51.448 177.528 53.2347 177.4 55.304H174.056V54.088C174.035 52.0827 173.651 50.6 172.904 49.64C172.168 48.68 171.043 48.2 169.528 48.2C167.854 48.2 166.595 48.728 165.752 49.784C164.91 50.84 164.488 52.3653 164.488 54.36C164.488 56.2587 164.91 57.7307 165.752 58.776C166.595 59.8107 167.811 60.328 169.4 60.328C170.446 60.328 171.347 60.0933 172.104 59.624C172.872 59.144 173.47 58.4613 173.896 57.576L177.176 58.616C176.504 60.1627 175.486 61.3627 174.12 62.216C172.755 63.0587 171.235 63.48 169.56 63.48ZM163.4 55.304V52.696H175.736V55.304H163.4ZM185.558 63.48C184.278 63.48 183.206 63.2453 182.342 62.776C181.478 62.296 180.822 61.6667 180.374 60.888C179.936 60.0987 179.718 59.2347 179.718 58.296C179.718 57.4213 179.872 56.6533 180.182 55.992C180.491 55.3307 180.95 54.7707 181.558 54.312C182.166 53.8427 182.912 53.464 183.798 53.176C184.566 52.952 185.435 52.7547 186.406 52.584C187.376 52.4133 188.395 52.2533 189.462 52.104C190.539 51.9547 191.606 51.8053 192.662 51.656L191.446 52.328C191.467 50.9733 191.179 49.9707 190.582 49.32C189.995 48.6587 188.982 48.328 187.542 48.328C186.635 48.328 185.803 48.5413 185.046 48.968C184.288 49.384 183.76 50.0773 183.462 51.048L180.342 50.088C180.768 48.6053 181.579 47.4267 182.774 46.552C183.979 45.6773 185.579 45.24 187.574 45.24C189.12 45.24 190.464 45.5067 191.606 46.04C192.758 46.5627 193.6 47.3947 194.134 48.536C194.411 49.1013 194.582 49.6987 194.646 50.328C194.71 50.9573 194.742 51.6347 194.742 52.36V63H191.782V59.048L192.358 59.56C191.643 60.8827 190.731 61.8693 189.622 62.52C188.523 63.16 187.168 63.48 185.558 63.48ZM186.15 60.744C187.099 60.744 187.915 60.5787 188.598 60.248C189.28 59.9067 189.83 59.4747 190.246 58.952C190.662 58.4293 190.934 57.8853 191.062 57.32C191.243 56.808 191.344 56.232 191.366 55.592C191.398 54.952 191.414 54.44 191.414 54.056L192.502 54.456C191.446 54.616 190.486 54.76 189.622 54.888C188.758 55.016 187.974 55.144 187.27 55.272C186.576 55.3893 185.958 55.5333 185.414 55.704C184.955 55.864 184.544 56.056 184.182 56.28C183.83 56.504 183.547 56.776 183.334 57.096C183.131 57.416 183.03 57.8053 183.03 58.264C183.03 58.712 183.142 59.128 183.366 59.512C183.59 59.8853 183.931 60.184 184.39 60.408C184.848 60.632 185.435 60.744 186.15 60.744ZM219.6 63L219.616 52.232C219.616 50.984 219.296 50.0133 218.656 49.32C218.016 48.616 217.174 48.264 216.128 48.264C215.488 48.264 214.902 48.4133 214.368 48.712C213.846 49 213.419 49.4373 213.088 50.024C212.768 50.6 212.608 51.3253 212.608 52.2L210.992 51.384C210.971 50.168 211.227 49.1013 211.76 48.184C212.304 47.2667 213.04 46.5573 213.968 46.056C214.896 45.544 215.936 45.288 217.088 45.288C218.955 45.288 220.4 45.848 221.424 46.968C222.448 48.088 222.96 49.576 222.96 51.432L222.944 63H219.6ZM198.88 63V45.72H201.856V50.712H202.24V63H198.88ZM209.248 63L209.264 52.296C209.264 51.0373 208.944 50.0507 208.304 49.336C207.675 48.6213 206.827 48.264 205.76 48.264C204.704 48.264 203.851 48.6267 203.2 49.352C202.56 50.0773 202.24 51.0267 202.24 52.2L200.64 51.176C200.64 50.0453 200.912 49.0373 201.456 48.152C202 47.2667 202.736 46.568 203.664 46.056C204.592 45.544 205.643 45.288 206.816 45.288C208.043 45.288 209.088 45.5493 209.952 46.072C210.816 46.584 211.472 47.304 211.92 48.232C212.379 49.16 212.608 50.2373 212.608 51.464L212.592 63H209.248Z" fill="#1053EB"/>
</svg>
